# xmcd
#
# Track frame offsets: 
#        150
#        17232
#        31338
#        45320
#        62018
#        76855
#        95931
#        116831
#        131209
#        145630
#        161746
#        176798
#        190179
#        202588
#
# Disc length: 2915 seconds
#
# Revision: 0
# Processed by: cddbd v1.5.2PL0 Copyright (c) Steve Scherf et al.
# Submitted via: ExactAudioCopy v1.3
#
DISCID=bd0b610e
DTITLE=Robert Peckman - Right Where I Wanna Be
DYEAR=2010
DGENRE=Blues, Rhythm and Blues
TTITLE0=Don't Want This Good Thing To Be Over
TTITLE1=I'm Right Where I Wanna Be
TTITLE2=Pickpocket
TTITLE3=Old School Is Still Cool
TTITLE4=Roll With the Punches
TTITLE5=Can't Get Enough of You
TTITLE6=I'm The Goat
TTITLE7=Spice Man
TTITLE8=I'll Never Do That Again
TTITLE9=She Can Do It All
TTITLE10=You So Crazy
TTITLE11=Honeyboy
TTITLE12=Love Thief
TTITLE13=When The Feelin' Hits Ya'
EXTD=
EXTT0=
EXTT1=
EXTT2=
EXTT3=
EXTT4=
EXTT5=
EXTT6=
EXTT7=
EXTT8=
EXTT9=
EXTT10=
EXTT11=
EXTT12=
EXTT13=
PLAYORDER=
